<svg width="687" height="176" xmlns="http://www.w3.org/2000/svg" fill-rule="evenodd" clip-rule="evenodd" stroke-linejoin="round" stroke-miterlimit="2"><path d="M54.2 72.647c0-10.175 8.279-18.459 18.458-18.459 10.175 0 18.454 8.284 18.454 18.459 0 10.183-8.28 18.47-18.454 18.47-10.18 0-18.459-8.287-18.459-18.47m48.726 0c0-16.688-13.584-30.263-30.267-30.263-16.688 0-30.263 13.575-30.263 30.263 0 16.687 13.575 30.275 30.263 30.275 16.683 0 30.267-13.588 30.267-30.275m-71.563 47.17c0-1.658-.713-3.17-1.808-4.274A60.58 60.58 0 0 1 11.812 72.65c0-33.546 27.3-60.846 60.838-60.846 33.554 0 60.85 27.3 60.85 60.846 0 16.78-6.825 31.992-17.846 43.012L64.27 167.04l8.375 8.375 51.413-51.421c13.13-13.15 21.25-31.296 21.25-51.342 0-40.125-32.521-72.65-72.658-72.65C32.533 0 0 32.526 0 72.65c0 20.03 8.145 38.22 21.216 51.304 1.121 1.113 2.583 1.763 4.238 1.763a5.907 5.907 0 0 0 5.908-5.9m77.73-10.863c9.278-9.317 15.02-22.15 15.02-36.304 0-28.375-23.083-51.458-51.458-51.458-28.367 0-51.459 23.083-51.459 51.458 0 14.154 5.85 27.112 15.03 36.304 1.083 1.08 2.579 1.788 4.237 1.788a5.912 5.912 0 0 0 5.908-5.909c0-1.691-.72-3.2-1.846-4.275-7.116-7.175-11.516-17.037-11.516-27.908 0-21.863 17.783-39.654 39.646-39.654 21.866 0 39.662 17.791 39.662 39.654 0 10.93-4.454 20.837-11.629 28.017l-51.4 51.396 8.354 8.341 51.45-51.45z" fill="rgb(218,32,49)" fill-rule="nonzero"/><path d="M364.433 62.322l10.75-32.713h5.558l7.571 22.15h.092l7.48-22.15h5.557l10.705 32.713h-7.9L398.5 43.255h-.096l-6.82 19.067h-6.593l-6.82-19.067h-.092l-5.75 19.067h-7.896z" fill="rgb(218,32,49)" fill-rule="nonzero"/><path d="M431.229 50.45c0-3.645-1.87-6.216-4.954-6.216-3.084 0-5 2.571-5 6.217 0 3.554 1.916 6.354 5 6.354 3.083 0 4.954-2.8 4.954-6.354m-17.058 0c0-7.196 4.954-12.292 12.104-12.292 7.054 0 12.058 5.096 12.058 12.292 0 7.337-5.004 12.43-12.058 12.43-7.15 0-12.104-5.093-12.104-12.43m27.629 0c0-7.196 4.629-12.292 11.683-12.292 2.942 0 6.263.609 8.971 3.271l-4.346 4.3c-1.075-1.12-2.57-1.542-4.204-1.542-3.083 0-4.954 2.617-4.954 6.263s1.87 6.354 4.954 6.354c1.633 0 3.13-.42 4.204-1.492l4.346 4.296c-2.708 2.663-6.03 3.271-8.97 3.271-7.055 0-11.684-5.092-11.684-12.43" fill="rgb(218,32,49)" fill-rule="nonzero"/><path d="M466.579 38.722h6.82v8.925h1.03l5.563-8.925h7.804l-7.571 11.683 8.504 11.917h-8.317l-6.262-8.975h-.75v8.975h-6.821v-23.6z" fill="rgb(218,32,49)" fill-rule="nonzero"/><path d="M507.429 50.45c0-3.645-1.867-6.216-4.954-6.216-3.083 0-5 2.571-5 6.217 0 3.554 1.917 6.354 5 6.354 3.087 0 4.954-2.8 4.954-6.354m-17.058 0c0-7.196 4.954-12.292 12.104-12.292 7.054 0 12.058 5.096 12.058 12.292 0 7.337-5.004 12.43-12.058 12.43-7.15 0-12.104-5.093-12.104-12.43" fill="rgb(218,32,49)" fill-rule="nonzero"/><path d="M531.508 57.368c1.917 0 2.571-.98 2.571-2.055 0-1.125-.654-2.245-2.57-2.245h-5.142v4.3h5.141zm-1.262-8.88c1.729 0 3.083-.7 3.083-2.475 0-1.775-1.354-2.337-3.083-2.337h-3.88v4.812h3.88zm-10.7 13.834v-23.6h12.196c4.629 0 8.645 1.729 8.645 6.404 0 2.15-1.683 4.017-3.504 4.53v.095c2.754.75 4.484 2.712 4.484 5.608 0 3.459-2.567 6.963-8.596 6.963h-13.225z" fill="rgb(218,32,49)" fill-rule="nonzero"/><path d="M544.792 50.45c0-7.195 4.629-12.29 11.683-12.29 2.942 0 6.262.608 8.97 3.27l-4.345 4.3c-1.075-1.12-2.567-1.542-4.204-1.542-3.084 0-4.954 2.617-4.954 6.263s1.87 6.354 4.954 6.354c1.637 0 3.129-.42 4.204-1.492l4.346 4.296c-2.709 2.663-6.03 3.271-8.971 3.271-7.054 0-11.683-5.092-11.683-12.43" fill="rgb(218,32,49)" fill-rule="nonzero"/><path d="M569.567 38.722h6.82v8.925h1.034l5.558-8.925h7.804l-7.57 11.683 8.504 11.917H583.4l-6.263-8.975h-.75v8.975h-6.82v-23.6zm25.383 0h6.82v13.316h.097l9.016-13.316h5.888v23.6h-6.821V49h-.092l-8.975 13.32h-5.933v-23.6z" fill="rgb(218,32,49)" fill-rule="nonzero"/><path d="M626.18 31.572l3.553-3.504c.65 1.258 1.959 2.987 4.159 2.987 2.8 0 3.783-1.73 4.483-2.987l3.367 3.504c-.892 1.82-3.505 4.67-7.713 4.67-4.158 0-6.775-2.85-7.85-4.67m-2.85 7.15h6.821v13.316h.096l9.016-13.316h5.888v23.596h-6.82V49h-.093l-8.975 13.317h-5.933V38.722z" fill="rgb(218,32,49)" fill-rule="nonzero"/><path d="M370.97 88.722h4.626l5.8 14.579h.087l5.846-14.58h4.483l6.03 23.6h-6.821l-2.571-11.778h-.092l-4.862 11.779h-4.442l-4.625-11.825h-.092l-2.662 11.825h-6.592l5.888-23.6z" fill="rgb(218,32,49)" fill-rule="nonzero"/><path d="M416.033 97.834c-.28-2.616-1.683-4.25-4.3-4.25-2.383 0-3.875 1.821-4.296 4.25h8.596zm-15.887 2.663c0-7.196 4.812-12.338 11.633-12.338 6.45 0 11.404 3.93 11.404 12.946v1.633H407.53c.517 3.038 3.18 4.021 5.375 4.021 2.15 0 4.067-1.029 4.904-2.241l4.392 4.391c-2.85 2.754-6.121 3.971-10.042 3.971-6.17 0-12.012-4.392-12.012-12.383m32.116-5.842h-6.916v-5.933h21.212l-2.192 5.933h-5.283v17.663h-6.82V94.655z" fill="rgb(218,32,49)" fill-rule="nonzero"/><path d="M461.804 106.713c3.133 0 5.325-2.662 5.325-6.308 0-3.458-2.192-6.17-5.325-6.17-3.13 0-5.37 2.712-5.37 6.17 0 3.646 2.24 6.308 5.37 6.308m-5.096 14.25h-6.82V88.722h6.82v2.337h.096c1.03-1.262 3.037-2.9 6.637-2.9 6.167 0 10.792 5.096 10.792 12.292 0 7.242-4.625 12.43-10.792 12.43-3.6 0-5.608-1.634-6.637-2.897h-.096v10.98z" fill="rgb(218,32,49)" fill-rule="nonzero"/><path d="M494.762 100.451c0-3.646-1.87-6.217-4.954-6.217-3.083 0-5 2.571-5 6.217 0 3.554 1.917 6.354 5 6.354 3.084 0 4.954-2.8 4.954-6.354m-17.058 0c0-7.196 4.954-12.292 12.104-12.292 7.054 0 12.059 5.096 12.059 12.292 0 7.337-5.005 12.43-12.059 12.43-7.15 0-12.104-5.093-12.104-12.43" fill="rgb(218,32,49)" fill-rule="nonzero"/><path d="M506.875 88.722h20.562v23.6h-6.825V94.655h-6.916v17.667h-6.821v-23.6z" fill="rgb(218,32,49)" fill-rule="nonzero"/><path d="M549.412 100.451c0-3.646-1.866-6.217-4.954-6.217-3.083 0-5 2.571-5 6.217 0 3.554 1.917 6.354 5 6.354 3.088 0 4.954-2.8 4.954-6.354m-17.058 0c0-7.196 4.954-12.292 12.104-12.292 7.059 0 12.059 5.096 12.059 12.292 0 7.337-5 12.43-12.059 12.43-7.15 0-12.104-5.093-12.104-12.43" fill="rgb(218,32,49)" fill-rule="nonzero"/><path d="M559.283 112.322v-5.096c.234.096.75.233 1.171.233 1.775 0 2.196-1.166 2.567-5.325.658-8.504.658-13.412.658-13.412h18.97v23.6h-6.728V94.659h-6.263c-.091 1.775-.046 3.971-.279 6.963-.512 7.287-1.637 11.166-7.475 11.166-1.358 0-2.62-.466-2.62-.466" fill="rgb(218,32,49)" fill-rule="nonzero"/><path d="M589.246 88.722h6.82v13.316h.096l9.017-13.316h5.888v23.6h-6.821V99h-.092l-8.975 13.32h-5.933v-23.6z" fill="rgb(218,32,49)" fill-rule="nonzero"/><path d="M622.158 94.655h-6.916v-5.933h21.212l-2.192 5.933h-5.283v17.663h-6.82V94.655zm31.175 3.18c-.279-2.617-1.683-4.25-4.3-4.25-2.379 0-3.875 1.82-4.296 4.25h8.596zm-15.887 2.662c0-7.196 4.816-12.338 11.637-12.338 6.446 0 11.4 3.93 11.4 12.946v1.633H644.83c.517 3.038 3.18 4.021 5.375 4.021 2.15 0 4.067-1.029 4.908-2.241l4.392 4.391c-2.85 2.754-6.125 3.971-10.05 3.971-6.167 0-12.008-4.392-12.008-12.383" fill="rgb(218,32,49)" fill-rule="nonzero"/><path d="M665.404 88.722h6.821v8.691h7.712v-8.691h6.821v23.6h-6.82v-8.93h-7.713v8.93h-6.82v-23.6z" fill="rgb(218,32,49)" fill-rule="nonzero"/><path d="M243.475 85.538h-4.117l4.008-11.47 11.5 18.929 11.5-18.93 4.013 11.471h-4.121v6.938h27.5v-6.938h-5.342l-18.212-46.02L254.866 66.4 239.53 39.518l-18.213 46.02h-5.333v6.938h27.492v-6.938z" fill="rgb(218,32,49)" fill-rule="nonzero"/><path d="M327.52 72.655c0-40.125-32.524-72.65-72.65-72.65-40.12 0-72.65 32.525-72.65 72.65a72.432 72.432 0 0 0 21.217 51.3 5.919 5.919 0 0 0 4.238 1.767c3.258 0 5.9-2.65 5.9-5.9 0-1.654-.705-3.167-1.805-4.275a60.59 60.59 0 0 1-17.741-42.892c0-33.542 27.291-60.842 60.841-60.842s60.846 27.3 60.846 60.842c0 16.78-6.829 31.992-17.85 43.004l-51.379 51.38 8.371 8.375L306.275 124c13.129-13.15 21.246-31.296 21.246-51.346" fill="rgb(218,32,49)" fill-rule="nonzero"/></svg>